<svg xmlns="http://www.w3.org/2000/svg" viewBox="0 0 300 160" width="300" height="160">
  <!-- Billet 20 € -->
  <g>
    <!-- fond -->
    <rect x="0" y="0" width="300" height="160" rx="8" fill="#B9C8EE"/>
    <!-- bande claire gauche -->
    <rect x="0" y="0" width="70" height="160" rx="8" fill="#DCE4F8"/>
    <rect x="60" y="0" width="10" height="160" fill="#DCE4F8"/>
    <!-- bande verticale droite -->
    <rect x="262" y="0" width="14" height="160" fill="#DCE4F8" opacity="0.55"/>
    <!-- drapeau UE -->
    <rect x="14" y="12" width="20" height="14" rx="2" fill="#6E86D6"/>
    <rect x="38" y="12" width="26" height="14" rx="2" fill="#27356B"/>
    <!-- arche / fenêtre -->
    <path d="M 165 130 L 165 70 Q 165 42 193 42 Q 221 42 221 70 L 221 130 Z" fill="#6E86D6" opacity="0.85"/>
    <path d="M 178 130 L 178 78 Q 178 60 193 60 Q 208 60 208 78 L 208 130 Z" fill="#DCE4F8" opacity="0.9"/>
    <!-- étoiles -->
    <polygon points="140.0,30.0 141.5,34.0 145.7,34.1 142.4,36.8 143.5,40.9 140.0,38.5 136.5,40.9 137.6,36.8 134.3,34.1 138.5,34.0" fill="#FFFFFF" opacity="0.9"/>
    <polygon points="162.0,35.9 163.5,39.9 167.7,40.0 164.4,42.7 165.5,46.7 162.0,44.4 158.5,46.7 159.6,42.7 156.3,40.0 160.5,39.9" fill="#FFFFFF" opacity="0.9"/>
    <polygon points="178.1,52.0 179.6,56.0 183.8,56.1 180.5,58.8 181.6,62.9 178.1,60.5 174.6,62.9 175.7,58.8 172.4,56.1 176.6,56.0" fill="#FFFFFF" opacity="0.9"/>
    <polygon points="184.0,74.0 185.5,78.0 189.7,78.1 186.4,80.8 187.5,84.9 184.0,82.5 180.5,84.9 181.6,80.8 178.3,78.1 182.5,78.0" fill="#FFFFFF" opacity="0.9"/>
    <polygon points="178.1,96.0 179.6,100.0 183.8,100.1 180.5,102.8 181.6,106.9 178.1,104.5 174.6,106.9 175.7,102.8 172.4,100.1 176.6,100.0" fill="#FFFFFF" opacity="0.9"/>
    <polygon points="162.0,112.1 163.5,116.1 167.7,116.3 164.4,118.9 165.5,123.0 162.0,120.6 158.5,123.0 159.6,118.9 156.3,116.3 160.5,116.1" fill="#FFFFFF" opacity="0.9"/>
    <polygon points="140.0,118.0 141.5,122.0 145.7,122.1 142.4,124.8 143.5,128.9 140.0,126.5 136.5,128.9 137.6,124.8 134.3,122.1 138.5,122.0" fill="#FFFFFF" opacity="0.9"/>
    <polygon points="118.0,112.1 119.5,116.1 123.7,116.3 120.4,118.9 121.5,123.0 118.0,120.6 114.5,123.0 115.6,118.9 112.3,116.3 116.5,116.1" fill="#FFFFFF" opacity="0.9"/>
    <polygon points="101.9,96.0 103.4,100.0 107.6,100.1 104.3,102.8 105.4,106.9 101.9,104.5 98.4,106.9 99.5,102.8 96.2,100.1 100.4,100.0" fill="#FFFFFF" opacity="0.9"/>
    <polygon points="96.0,74.0 97.5,78.0 101.7,78.1 98.4,80.8 99.5,84.9 96.0,82.5 92.5,84.9 93.6,80.8 90.3,78.1 94.5,78.0" fill="#FFFFFF" opacity="0.9"/>
    <polygon points="101.9,52.0 103.4,56.0 107.6,56.1 104.3,58.8 105.4,62.9 101.9,60.5 98.4,62.9 99.5,58.8 96.2,56.1 100.4,56.0" fill="#FFFFFF" opacity="0.9"/>
    <polygon points="118.0,35.9 119.5,39.9 123.7,40.0 120.4,42.7 121.5,46.7 118.0,44.4 114.5,46.7 115.6,42.7 112.3,40.0 116.5,39.9" fill="#FFFFFF" opacity="0.9"/>
    <!-- petit chiffre bas gauche -->
    <text x="12" y="148" font-family="Arial, Helvetica, sans-serif" font-size="20" font-weight="bold" fill="#2E4494">20</text>
    <!-- filigrane bas gauche -->
    <rect x="12" y="122" width="46" height="8" fill="#B9C8EE" opacity="0.7"/>
    <!-- valeur : gros chiffre centre, halo blanc pour lisibilite a petite taille -->
    <text x="150" y="112" text-anchor="middle" font-family="Arial, Helvetica, sans-serif" font-size="96" font-weight="bold" fill="#2E4494" stroke="#FFFFFF" stroke-width="4" paint-order="stroke">20</text>
  </g>
</svg>
